<svg viewBox="0 0 450 153" fill="none" xmlns="http://www.w3.org/2000/svg"><rect fill="#000"/><path d="M269.628 29.161c-.593-.61-1.68-1.372-3.221-1.77-.766-.213-1.613-.313-2.519-.37-.456-.036-.924-.014-1.414-.018-.483.033-.986.06-1.494.128-2.034.267-4.212.925-6.277 1.902-2.083.96-4.07 2.198-5.937 3.514-3.721 2.653-6.976 5.59-10.001 7.59-1.504 1.012-2.941 1.81-4.226 2.36-1.284.545-2.403.876-3.201 1.047-.411.1-.4.399.036.436.91.106 2.268.125 3.902-.11 1.629-.237 3.521-.755 5.413-1.553.356-.147.712-.31 1.068-.473a9.31 9.31 0 00-.134 3.588 9.35 9.35 0 0018.468-2.92 9.349 9.349 0 00-7.06-7.63c.969-.7 1.961-1.413 2.975-2.095 1.629-1.073 3.311-2.074 5.007-2.748 1.682-.682 3.407-1.08 4.879-1.173 1.47-.1 2.691.242 3.47.642.365.193.576-.023.266-.347zm-61.491 16.271a9.308 9.308 0 00-.112-3.474c.558.257 1.114.5 1.666.71 1.854.722 3.628 1.159 5.137 1.33 1.511.172 2.736.12 3.571.01.432-.044.422-.345.006-.437-.875-.164-2.122-.526-3.518-1.134-1.397-.614-2.935-1.489-4.48-2.584-3.102-2.165-6.299-5.104-9.414-7.306a38.263 38.263 0 00-5.311-3.165c-1.966-.936-4.093-1.708-6.194-2.047-2.105-.35-4.094-.299-5.755.047-1.683.345-2.919 1.142-3.573 1.793-.318.32-.123.547.242.365.719-.35 1.809-.66 3.147-.607.665.01 1.401.13 2.179.284.388.068.783.193 1.185.285.399.13.808.249 1.218.4 2.767.985 5.624 2.883 8.588 4.981a9.349 9.349 0 1011.418 10.55zM26.096 106h10.752V83.664c0-2.56-.128-5.184-.256-7.488l-.192-3.2-.064-1.216c.32 1.088.512 1.792.64 2.176C38 77.968 38 78.096 39.728 83.28L47.216 106h10.368l6.4-19.456c.704-2.24 1.664-5.248 2.816-9.216.896-3.008.96-3.136 1.728-5.568-.064 2.112-.064 2.112-.192 4.8a94.478 94.478 0 00-.256 7.104V106h11.2V63.312H61.808L56.496 79.44c-2.24 6.912-3.392 10.624-3.712 13.76-.768-4.352-1.92-8.128-4.416-15.68l-4.736-14.208H26.096V106zM87.471 106h30.72v-8.192h-19.2v-9.536h17.408V80.08H98.991v-8.576h18.496v-8.192H87.471V106zM122.003 106h11.456l3.456-9.024h15.872l3.264 9.024h12.224l-16.384-42.688h-13.632L122.003 106zm17.472-16.896l4.8-14.464c.32-.96.576-2.048.704-2.944.192 1.152.256 1.536.704 3.008l4.416 14.4h-10.624zM172.471 106h10.624l-.192-21.696c-.064-4.16-.192-5.824-.512-8.576 1.216 3.584 1.536 4.352 3.072 7.296 1.024 1.92 2.048 3.968 3.264 6.272L197.623 106h14.208V63.312h-10.688l.192 17.984c.064 6.4.192 9.088.576 13.184-.64-2.56-2.176-6.592-4.48-11.008l-10.56-20.16h-14.4V106z" fill="#fff"/><path d="M218.368 84.88c0 14.464 9.28 22.144 26.688 22.144 5.76 0 9.472-.64 14.208-2.56V81.232H241.6v7.872h6.656v8.192c-2.112.64-3.264.832-4.864.832-7.68 0-13.184-5.632-13.184-13.504 0-8.32 6.336-13.952 15.808-13.952 3.776 0 7.488.896 11.2 2.688l.96-9.152c-5.056-1.408-8.384-1.92-13.44-1.92-16.96 0-26.368 8.064-26.368 22.592zM267.096 106h11.52V89.552h1.856c4.224 0 5.888 1.28 7.296 5.696L291.224 106h11.968l-4.288-11.776c-2.56-7.104-3.392-8.32-6.528-9.152 5.568-1.152 8.576-4.8 8.576-10.368 0-4.16-1.856-7.488-5.12-9.408-2.432-1.408-5.76-1.984-11.136-1.984h-17.6V106zm11.2-24.64v-9.856h3.84c4.928 0 7.296 1.664 7.296 5.056 0 3.264-2.112 4.8-6.72 4.8h-4.416zM308.158 106h30.72v-8.192h-19.2v-9.536h17.409V80.08h-17.409v-8.576h18.496v-8.192h-30.016V106zM346.033 106h30.72v-8.192h-19.2v-9.536h17.409V80.08h-17.409v-8.576h18.496v-8.192h-30.016V106zM383.908 106h10.625l-.193-21.696c-.063-4.16-.192-5.824-.512-8.576 1.216 3.584 1.537 4.352 3.072 7.296 1.024 1.92 2.049 3.968 3.265 6.272L409.061 106h14.207V63.312H412.58l.193 17.984c.064 6.4.191 9.088.575 13.184-.64-2.56-2.175-6.592-4.48-11.008l-10.559-20.16h-14.401V106z" fill="#59DB1B"/><path d="M172.548 128h1.71v-5.49h4.482v-1.458h-4.482v-3.6h4.662v-1.458h-6.372V128zM189.134 128h1.71v-12.006h-1.71V128zM204.223 128h1.71v-10.548h3.762v-1.458h-9.306v1.458h3.834V128zM219.132 128h1.71v-6.12c0-1.566-.054-3.492-.144-4.518.27.954.846 2.124 2.016 4.122l3.798 6.516h2.214v-12.006h-1.71v5.778c0 1.944.072 3.69.18 4.734-.27-.846-.882-2.124-1.638-3.438l-4.086-7.074h-2.34V128zM239.599 128h6.822v-1.458h-5.112v-4.086h4.608v-1.458h-4.608v-3.546h4.968v-1.458h-6.678V128zM256.116 127.748c.846.324 1.746.486 2.754.486 2.448 0 4.086-1.458 4.086-3.618 0-1.53-.648-2.358-2.664-3.366l-.648-.324c-1.476-.738-1.944-1.224-1.944-2.052 0-.99.882-1.656 2.16-1.656.666 0 1.332.144 2.25.486l.216-1.512a8.046 8.046 0 00-2.628-.432c-2.268 0-3.78 1.314-3.78 3.276 0 1.494.792 2.43 2.682 3.294l.666.306c1.296.594 1.854 1.206 1.854 2.106 0 1.224-.972 2.034-2.466 2.034-.738 0-1.422-.18-2.358-.63l-.18 1.602zM272.189 127.748c.846.324 1.746.486 2.754.486 2.448 0 4.086-1.458 4.086-3.618 0-1.53-.648-2.358-2.664-3.366l-.648-.324c-1.476-.738-1.944-1.224-1.944-2.052 0-.99.882-1.656 2.16-1.656.666 0 1.332.144 2.25.486l.216-1.512a8.046 8.046 0 00-2.628-.432c-2.268 0-3.78 1.314-3.78 3.276 0 1.494.792 2.43 2.682 3.294l.666.306c1.296.594 1.854 1.206 1.854 2.106 0 1.224-.972 2.034-2.466 2.034-.738 0-1.422-.18-2.358-.63l-.18 1.602z" fill="#fff"/></svg>