<svg viewBox="0 0 153 153" fill="none" xmlns="http://www.w3.org/2000/svg"><rect fill="#fff"/><path d="M120.08 26.161c-.593-.61-1.68-1.372-3.221-1.77-.766-.213-1.613-.313-2.519-.37-.456-.036-.924-.014-1.414-.018-.483.033-.986.06-1.494.128-2.034.267-4.212.925-6.277 1.902-2.083.96-4.07 2.198-5.937 3.514-3.721 2.653-6.976 5.59-10 7.59-1.505 1.012-2.942 1.81-4.227 2.36-1.284.545-2.403.876-3.2 1.047-.412.1-.4.399.035.436.91.106 2.268.125 3.902-.11 1.629-.237 3.521-.755 5.413-1.553.356-.147.712-.31 1.068-.473a9.317 9.317 0 00-.134 3.588 9.35 9.35 0 0018.468-2.92 9.349 9.349 0 00-7.06-7.63c.969-.7 1.961-1.413 2.975-2.095 1.629-1.073 3.311-2.074 5.007-2.748 1.682-.682 3.407-1.08 4.879-1.173 1.47-.1 2.691.242 3.47.642.365.193.576-.023.266-.347zM58.589 42.432a9.303 9.303 0 00-.112-3.474c.558.257 1.114.5 1.666.71 1.853.722 3.628 1.159 5.137 1.33 1.511.172 2.736.12 3.571.01.432-.044.422-.345.006-.437-.875-.164-2.122-.526-3.518-1.134-1.397-.614-2.935-1.489-4.48-2.584-3.102-2.165-6.299-5.104-9.414-7.306a38.285 38.285 0 00-5.311-3.165c-1.966-.936-4.093-1.708-6.194-2.047-2.105-.35-4.094-.299-5.755.047-1.683.345-2.92 1.142-3.573 1.793-.318.32-.123.547.242.365.719-.35 1.81-.66 3.147-.607.665.01 1.4.13 2.18.284.387.068.782.193 1.184.285.4.13.808.249 1.218.4 2.767.985 5.624 2.883 8.588 4.981a9.348 9.348 0 00.724 18.324 9.349 9.349 0 0010.694-7.775zM23 106h11.523V81.931c0-2.759-.137-5.586-.274-8.069l-.206-3.448-.068-1.31c.343 1.172.548 1.93.686 2.344 1.097 4.345 1.097 4.483 2.95 10.07L45.634 106h11.112l6.86-20.966c.754-2.413 1.783-5.655 3.017-9.93.96-3.242 1.03-3.38 1.853-6-.07 2.275-.07 2.275-.206 5.172a102.346 102.346 0 00-.275 7.655V106H80V60H61.274l-5.693 17.38c-2.4 7.448-3.635 11.448-3.978 14.827-.823-4.69-2.058-8.759-4.733-16.897L41.794 60H23v46z" fill="#000"/><path d="M86 83.24C86 98.76 95.757 107 114.061 107c6.056 0 9.959-.687 14.939-2.747V79.326h-18.573v8.447h6.999v8.79c-2.221.686-3.432.892-5.115.892-8.075 0-13.862-6.043-13.862-14.49 0-8.926 6.662-14.97 16.621-14.97 3.971 0 7.874.962 11.777 2.885l1.009-9.82c-5.316-1.51-8.815-2.06-14.131-2.06C95.892 59 86 67.652 86 83.24z" fill="#59DB1B"/><path d="M23 128.24h1.71v-5.49h4.482v-1.458H24.71v-3.6h4.662v-1.458H23v12.006zM39.586 128.24h1.71v-12.006h-1.71v12.006zM54.675 128.24h1.71v-10.548h3.762v-1.458H50.84v1.458h3.834v10.548zM69.584 128.24h1.71v-6.12c0-1.566-.054-3.492-.144-4.518.27.954.846 2.124 2.016 4.122l3.798 6.516h2.214v-12.006h-1.71v5.778c0 1.944.072 3.69.18 4.734-.27-.846-.882-2.124-1.638-3.438l-4.086-7.074h-2.34v12.006zM90.051 128.24h6.822v-1.458h-5.112v-4.086h4.608v-1.458h-4.608v-3.546h4.968v-1.458h-6.678v12.006zM106.568 127.988c.846.324 1.746.486 2.754.486 2.448 0 4.086-1.458 4.086-3.618 0-1.53-.648-2.358-2.664-3.366l-.648-.324c-1.476-.738-1.944-1.224-1.944-2.052 0-.99.882-1.656 2.16-1.656.666 0 1.332.144 2.25.486l.216-1.512a8.046 8.046 0 00-2.628-.432c-2.268 0-3.78 1.314-3.78 3.276 0 1.494.792 2.43 2.682 3.294l.666.306c1.296.594 1.854 1.206 1.854 2.106 0 1.224-.972 2.034-2.466 2.034-.738 0-1.422-.18-2.358-.63l-.18 1.602zM122.641 127.988c.846.324 1.746.486 2.754.486 2.448 0 4.086-1.458 4.086-3.618 0-1.53-.648-2.358-2.664-3.366l-.648-.324c-1.476-.738-1.944-1.224-1.944-2.052 0-.99.882-1.656 2.16-1.656.666 0 1.332.144 2.25.486l.216-1.512a8.046 8.046 0 00-2.628-.432c-2.268 0-3.78 1.314-3.78 3.276 0 1.494.792 2.43 2.682 3.294l.666.306c1.296.594 1.854 1.206 1.854 2.106 0 1.224-.972 2.034-2.466 2.034-.738 0-1.422-.18-2.358-.63l-.18 1.602z" fill="#000"/></svg>