<svg viewBox="0 0 255 235" fill="none" xmlns="http://www.w3.org/2000/svg"><rect fill="#000"/><path d="M119.999 119.125c-8.644-12.427-14.244-23.757-25.809-26.194 13.148 1.34 25.322-7.675 25.322-22.783C119.512 50.168 98.208 47 83.478 47H36v1.218h1.583c4.139.122 7.669 3.412 7.669 7.676v67.617c-.122 4.264-3.53 7.676-7.791 7.676L36 131.065v1.218h43.704v-1.218h-1.461c-4.383.122-7.791-3.412-7.913-7.554V53.335h5.478c8.035 0 17.043 4.752 17.53 16.082.122 2.315-.121 3.899-.243 4.995-1.583 11.209-10.47 14.986-16.678 14.986-.487 0-1.583 0-2.07.122v1.096c2.435.731 4.505 4.142 6.452 8.163 2.678 5.361 8.522 19.615 15.096 30.336 26.173 42.764 65.494 33.261 78.642 23.88v-1.219c-25.93-1.584-40.66-12.792-54.538-32.651z" fill="url(#paint0_linear)"/><path d="M218.996 106.82c-.244-13.889-12.052-21.686-23.252-21.077 5.6-2.315 10.469-9.26 10.348-17.3C205.848 53.7 188.927 47 170.544 47h-37.616l.121 1.218h1.461c4.139 0 7.67 3.29 7.791 7.554v64.084c-8.4-6.335-14.973-17.057-14.973-33.991l-1.096.122c-3.652 38.742 21.913 46.662 42.486 48.002 27.148 1.827 50.643-7.31 50.278-27.169zm-51.739 20.833v-74.44c9.496.853 12.296 6.214 12.661 16.204.122 3.168.487 16.448-8.521 16.448v1.218c9.008-.122 18.382 4.752 18.991 18.153.608 14.011-8.644 22.296-23.131 22.417z" fill="url(#paint1_linear)"/><path d="M46.93 184.246h-6.616L38.593 188H36.08l7.648-16.426L51.105 188h-2.553l-1.621-3.754zm-.95-2.192l-2.292-5.255-2.403 5.255h4.695zM61.562 181.414L66.346 188h-2.852l-4.415-6.326h-.42V188h-2.332v-15.455h2.732c2.042 0 3.517.384 4.425 1.151 1 .854 1.501 1.982 1.501 3.383 0 1.095-.314 2.036-.94 2.823-.628.788-1.456 1.291-2.483 1.512zm-2.903-1.772h.74c2.21 0 3.314-.844 3.314-2.533 0-1.581-1.075-2.372-3.223-2.372h-.831v4.905zM76.043 174.737V188H73.71v-13.263h-3.553v-2.192h9.43v2.192h-3.544zM105.975 173.376v2.762c-1.348-1.127-2.742-1.691-4.184-1.691-1.588 0-2.926.57-4.013 1.711-1.095 1.135-1.642 2.523-1.642 4.165 0 1.621.547 2.989 1.642 4.104 1.094 1.114 2.435 1.671 4.023 1.671.821 0 1.519-.133 2.092-.4.321-.134.651-.314.991-.541.347-.227.711-.5 1.091-.821v2.813c-1.334.754-2.736 1.131-4.204 1.131-2.209 0-4.094-.77-5.655-2.312-1.555-1.555-2.332-3.43-2.332-5.625 0-1.969.65-3.724 1.951-5.266 1.602-1.888 3.674-2.832 6.217-2.832 1.388 0 2.729.377 4.023 1.131zM111.338 180.202c0-2.175.797-4.044 2.392-5.605 1.588-1.562 3.497-2.342 5.725-2.342 2.203 0 4.091.787 5.666 2.362 1.581 1.575 2.372 3.467 2.372 5.675 0 2.223-.794 4.108-2.382 5.656-1.595 1.555-3.52 2.332-5.776 2.332-1.995 0-3.787-.69-5.375-2.072-1.748-1.528-2.622-3.53-2.622-6.006zm2.352.03c0 1.709.574 3.113 1.721 4.215 1.142 1.101 2.46 1.651 3.954 1.651 1.622 0 2.99-.56 4.104-1.681 1.115-1.135 1.672-2.516 1.672-4.145 0-1.648-.551-3.029-1.652-4.144-1.094-1.121-2.449-1.681-4.064-1.681-1.608 0-2.966.56-4.074 1.681-1.107 1.108-1.661 2.476-1.661 4.104zM133.166 188l3.253-16.616 5.305 12.012 5.495-12.012L150.142 188h-2.392l-1.492-9.329-4.574 10.04-4.444-10.05-1.662 9.339h-2.412zM159.038 181.724V188h-2.333v-15.455h2.643c1.295 0 2.272.09 2.933.27.667.18 1.254.521 1.762 1.021.887.868 1.331 1.962 1.331 3.283 0 1.415-.474 2.536-1.422 3.364-.947.827-2.225 1.241-3.833 1.241h-1.081zm0-2.162h.87c2.143 0 3.214-.824 3.214-2.473 0-1.595-1.105-2.392-3.314-2.392h-.77v4.865zM178.994 184.246h-6.617L170.656 188h-2.513l7.648-16.426L183.168 188h-2.553l-1.621-3.754zm-.951-2.192l-2.292-5.255-2.403 5.255h4.695zM188.39 188v-16.506l11.271 11.791v-10.74h2.332v16.396l-11.271-11.762V188h-2.332zM212.11 181.323l-5.045-8.778h2.683l3.533 6.176 3.543-6.176h2.683l-5.065 8.778V188h-2.332v-6.677z" fill="#FDD451"/><defs><linearGradient id="paint0_linear" x1="127.5" y1="47" x2="127.5" y2="161" gradientUnits="userSpaceOnUse"><stop stop-color="#FDD451"/><stop offset="1" stop-color="beige"/></linearGradient><linearGradient id="paint1_linear" x1="127.5" y1="47" x2="127.5" y2="161" gradientUnits="userSpaceOnUse"><stop stop-color="#FDD451"/><stop offset="1" stop-color="beige"/></linearGradient></defs></svg>