<svg width="255" height="235" viewBox="0 0 255 235" fill="none" xmlns="http://www.w3.org/2000/svg">
<rect width="255" height="235" fill="white"/>
<rect width="255" height="235" fill="url(#paint0_linear)"/>
<path d="M119.999 119.125C111.355 106.698 105.755 95.3677 94.1904 92.931C107.338 94.2712 119.512 85.2555 119.512 70.1483C119.512 50.1677 98.2077 47 83.4775 47H36V48.2183H37.5826C41.7217 48.3402 45.252 51.6296 45.252 55.8938V123.511C45.1303 127.775 41.7217 131.187 37.4608 131.187L36 131.065V132.283H79.7037V131.065H78.2428C73.8603 131.187 70.4516 127.653 70.3299 123.511V53.3353H75.8081C83.8427 53.3353 92.8513 58.0868 93.3382 69.4173C93.46 71.7321 93.2165 73.3159 93.0948 74.4124C91.5122 85.621 82.6254 89.3978 76.4168 89.3978C75.9298 89.3978 74.8342 89.3979 74.3472 89.5197V90.6162C76.782 91.3472 78.8515 94.7585 80.7993 98.779C83.4775 104.14 89.3209 118.394 95.8947 129.115C122.068 171.879 161.389 162.376 174.537 152.995V151.776C148.607 150.192 133.877 138.984 119.999 119.125Z" fill="black"/>
<path d="M218.996 106.82C218.752 92.931 206.944 85.1337 195.744 85.7429C201.344 83.428 206.213 76.4836 206.092 68.4426C205.848 53.7008 188.927 47 170.544 47H132.928L133.049 48.2183C133.171 48.2183 134.267 48.2183 134.51 48.2183C138.649 48.2183 142.18 51.5078 142.301 55.772V119.856C133.901 113.521 127.328 102.799 127.328 85.8647L126.232 85.9865C122.58 124.729 148.145 132.649 168.718 133.989C195.866 135.816 219.361 126.679 218.996 106.82ZM167.257 127.653V53.2135C176.753 54.0663 179.553 59.427 179.918 69.4173C180.04 72.5849 180.405 85.8647 171.397 85.8647V87.083C180.405 86.9612 189.779 91.8345 190.388 105.236C190.996 119.247 181.744 127.532 167.257 127.653Z" fill="black"/>
<path d="M46.8506 184.246H40.2341L38.5125 188H36L43.6475 171.574L51.0247 188H48.4722L46.8506 184.246ZM45.8997 182.054L43.6074 176.799L41.2051 182.054H45.8997Z" fill="black"/>
<path d="M61.4817 181.414L66.2663 188H63.4135L58.9992 181.674H58.5788V188H56.2466V172.545H58.9792C61.0212 172.545 62.496 172.929 63.4035 173.696C64.4045 174.55 64.905 175.678 64.905 177.079C64.905 178.174 64.5914 179.115 63.9641 179.902C63.3368 180.69 62.5093 181.193 61.4817 181.414ZM58.5788 179.642H59.3196C61.5284 179.642 62.6328 178.798 62.6328 177.109C62.6328 175.528 61.5584 174.737 59.4096 174.737H58.5788V179.642Z" fill="black"/>
<path d="M75.9626 174.737V188H73.6303V174.737H70.0768V172.545H79.506V174.737H75.9626Z" fill="black"/>
<path d="M105.895 173.376V176.138C104.547 175.011 103.153 174.447 101.711 174.447C100.123 174.447 98.7851 175.017 97.6974 176.158C96.603 177.293 96.0558 178.681 96.0558 180.323C96.0558 181.944 96.603 183.312 97.6974 184.427C98.7918 185.541 100.133 186.098 101.721 186.098C102.542 186.098 103.239 185.965 103.813 185.698C104.134 185.564 104.464 185.384 104.804 185.157C105.151 184.93 105.515 184.657 105.895 184.336V187.149C104.561 187.903 103.159 188.28 101.691 188.28C99.4825 188.28 97.5973 187.51 96.0358 185.968C94.4809 184.413 93.7035 182.538 93.7035 180.343C93.7035 178.374 94.3541 176.619 95.6554 175.077C97.257 173.189 99.329 172.245 101.871 172.245C103.259 172.245 104.601 172.622 105.895 173.376Z" fill="black"/>
<path d="M111.257 180.202C111.257 178.027 112.055 176.158 113.65 174.597C115.238 173.035 117.147 172.255 119.375 172.255C121.577 172.255 123.466 173.042 125.041 174.617C126.622 176.192 127.413 178.084 127.413 180.292C127.413 182.515 126.619 184.4 125.031 185.948C123.436 187.503 121.511 188.28 119.255 188.28C117.26 188.28 115.468 187.59 113.88 186.208C112.132 184.68 111.257 182.678 111.257 180.202ZM113.61 180.232C113.61 181.941 114.184 183.345 115.331 184.447C116.473 185.548 117.79 186.098 119.285 186.098C120.907 186.098 122.275 185.538 123.389 184.417C124.504 183.282 125.061 181.901 125.061 180.272C125.061 178.624 124.51 177.243 123.409 176.128C122.315 175.007 120.96 174.447 119.345 174.447C117.737 174.447 116.379 175.007 115.271 176.128C114.164 177.236 113.61 178.604 113.61 180.232Z" fill="black"/>
<path d="M133.086 188L136.339 171.384L141.644 183.396L147.139 171.384L150.062 188H147.67L146.178 178.671L141.604 188.711L137.159 178.661L135.498 188H133.086Z" fill="black"/>
<path d="M158.958 181.724V188H156.625V172.545H159.268C160.562 172.545 161.54 172.635 162.201 172.815C162.868 172.995 163.455 173.336 163.962 173.836C164.85 174.704 165.294 175.798 165.294 177.119C165.294 178.534 164.82 179.655 163.872 180.483C162.925 181.31 161.647 181.724 160.039 181.724H158.958ZM158.958 179.562H159.828C161.97 179.562 163.042 178.738 163.042 177.089C163.042 175.494 161.937 174.697 159.728 174.697H158.958V179.562Z" fill="black"/>
<path d="M178.914 184.246H172.297L170.576 188H168.063L175.711 171.574L183.088 188H180.535L178.914 184.246ZM177.963 182.054L175.671 176.799L173.268 182.054H177.963Z" fill="black"/>
<path d="M188.31 188V171.494L199.581 183.285V172.545H201.913V188.941L190.642 177.179V188H188.31Z" fill="black"/>
<path d="M212.03 181.323L206.985 172.545H209.667L213.201 178.721L216.744 172.545H219.427L214.362 181.323V188H212.03V181.323Z" fill="black"/>
<defs>
<linearGradient id="paint0_linear" x1="127.5" y1="0" x2="127.5" y2="235" gradientUnits="userSpaceOnUse">
<stop stop-color="#FDD451"/>
<stop offset="1" stop-color="#F5F5DC"/>
</linearGradient>
</defs>
</svg>
