<svg width="255" height="235" viewBox="0 0 255 235" fill="none" xmlns="http://www.w3.org/2000/svg">
<g clip-path="url(#clip0)">
<rect width="255" height="235" fill="white"/>
<rect width="255" height="235" fill="url(#paint0_linear)"/>
<path d="M123.999 133.125C115.355 120.698 109.755 109.368 98.1904 106.931C111.338 108.271 123.512 99.2555 123.512 84.1483C123.512 64.1677 102.208 61 87.4775 61H40V62.2183H41.5826C45.7217 62.3402 49.252 65.6296 49.252 69.8938V137.511C49.1303 141.775 45.7217 145.187 41.4608 145.187L40 145.065V146.283H83.7037V145.065H82.2428C77.8603 145.187 74.4516 141.653 74.3299 137.511V67.3353H79.8081C87.8427 67.3353 96.8513 72.0868 97.3382 83.4173C97.46 85.7321 97.2165 87.3159 97.0948 88.4124C95.5122 99.621 86.6254 103.398 80.4168 103.398C79.9298 103.398 78.8342 103.398 78.3472 103.52V104.616C80.782 105.347 82.8515 108.758 84.7993 112.779C87.4775 118.14 93.3209 132.394 99.8947 143.115C126.068 185.879 165.389 176.376 178.537 166.995V165.776C152.607 164.192 137.877 152.984 123.999 133.125Z" fill="black"/>
<path d="M222.996 120.82C222.752 106.931 210.944 99.1337 199.744 99.7429C205.344 97.428 210.213 90.4836 210.092 82.4426C209.848 67.7008 192.927 61 174.544 61H136.928L137.049 62.2183C137.171 62.2183 138.267 62.2183 138.51 62.2183C142.649 62.2183 146.18 65.5078 146.301 69.772V133.856C137.901 127.521 131.328 116.799 131.328 99.8647L130.232 99.9865C126.58 138.729 152.145 146.649 172.718 147.989C199.866 149.816 223.361 140.679 222.996 120.82ZM171.257 141.653V67.2135C180.753 68.0663 183.553 73.427 183.918 83.4173C184.04 86.5849 184.405 99.8647 175.397 99.8647V101.083C184.405 100.961 193.779 105.835 194.388 119.236C194.996 133.247 185.744 141.532 171.257 141.653Z" fill="black"/>
</g>
<defs>
<linearGradient id="paint0_linear" x1="127.5" y1="0" x2="127.5" y2="235" gradientUnits="userSpaceOnUse">
<stop stop-color="#FDD451"/>
<stop offset="1" stop-color="#F5F5DC"/>
</linearGradient>
<clipPath id="clip0">
<rect width="255" height="235" fill="white"/>
</clipPath>
</defs>
</svg>
