<svg viewBox="0 0 540 235" fill="none" xmlns="http://www.w3.org/2000/svg"><rect height="234.133" fill="#000"/><path d="M112.999 132.125c-8.644-12.427-14.244-23.757-25.809-26.194 13.148 1.34 25.322-7.675 25.322-22.783C112.512 63.168 91.208 60 76.478 60H29v1.218h1.583c4.139.122 7.669 3.412 7.669 7.676v67.617c-.122 4.264-3.53 7.676-7.791 7.676L29 144.065v1.218h43.704v-1.218h-1.461c-4.383.122-7.791-3.412-7.913-7.554V66.335h5.478c8.035 0 17.043 4.752 17.53 16.082.122 2.315-.121 3.899-.243 4.995-1.583 11.209-10.47 14.986-16.678 14.986-.487 0-1.583 0-2.07.122v1.096c2.435.731 4.505 4.142 6.452 8.163 2.678 5.361 8.522 19.615 15.096 30.336 26.173 42.764 65.494 33.261 78.642 23.88v-1.219c-25.93-1.584-40.66-12.792-54.538-32.651z" fill="#fff"/><path d="M147.242 143h-21.519v-2.133c.492-.036 1.212-.091 2.16-.164.966-.073 1.631-.182 1.996-.328.674-.273 1.13-.629 1.367-1.066.255-.456.383-1.03.383-1.723v-27.508c0-.62-.119-1.167-.356-1.64-.237-.474-.701-.857-1.394-1.149-.438-.182-1.085-.365-1.941-.547-.857-.2-1.596-.337-2.215-.41v-2.133h21.519v2.133a67.09 67.09 0 00-2.051.246c-.82.091-1.513.228-2.078.41-.711.237-1.185.611-1.422 1.121-.237.493-.355 1.058-.355 1.696v27.48c0 .656.118 1.222.355 1.695.256.456.73.83 1.422 1.122.383.164 1.012.328 1.887.492a22.79 22.79 0 002.242.273V143zM194.477 106.387a8.685 8.685 0 00-1.723.328 7.644 7.644 0 00-1.695.765c-.784.456-1.395.948-1.832 1.477-.419.51-.839 1.221-1.258 2.133a276.897 276.897 0 00-2.379 5.523c-1.021 2.407-2.187 5.15-3.5 8.231a1807.318 1807.318 0 00-3.801 9.105l-3.882 9.489h-5.497c-2.552-6.253-5.149-12.606-7.792-19.059-2.644-6.453-4.503-10.938-5.579-13.453-.419-.912-.829-1.595-1.23-2.051-.383-.474-1.003-.957-1.859-1.449-.62-.347-1.167-.584-1.641-.711-.474-.146-1.103-.274-1.887-.383v-2.133h21.028v2.078c-1.969.237-3.309.493-4.02.766-.693.255-1.039.583-1.039.984 0 .201.027.42.082.657l.301.902c.583 1.604 1.64 4.229 3.172 7.875 1.531 3.628 3.8 9.169 6.808 16.625a909.3 909.3 0 004.594-11.512 3548 3548 0 003.227-8.312 39.276 39.276 0 001.121-3.254c.31-1.021.464-1.787.464-2.297 0-.583-.419-1.066-1.257-1.449-.839-.401-2.388-.693-4.649-.875v-2.188h15.723v2.188zM229.668 114.098h-2.078c-.528-1.477-1.44-2.972-2.734-4.485-1.294-1.513-2.58-2.406-3.856-2.679-.547-.128-1.312-.201-2.297-.219a64.776 64.776 0 00-2.406-.055h-5.633v14.985h3.993c1.002 0 1.914-.119 2.734-.356.82-.237 1.568-.693 2.242-1.367.419-.419.839-1.158 1.258-2.215.437-1.057.72-1.978.848-2.762h2.078v16.188h-2.078c-.11-.766-.392-1.723-.848-2.871-.438-1.167-.857-1.969-1.258-2.407a4.569 4.569 0 00-2.133-1.339c-.82-.256-1.768-.383-2.843-.383h-3.993v11.183c0 1.167.082 2.097.246 2.789.183.675.511 1.194.985 1.559.456.346 1.075.574 1.859.684.802.109 1.887.164 3.254.164.638 0 1.404-.009 2.297-.028a20.98 20.98 0 002.352-.164 14.297 14.297 0 002.132-.41c.675-.182 1.176-.446 1.504-.793.875-.893 1.86-2.251 2.953-4.074 1.094-1.841 1.814-3.217 2.161-4.129h1.996L231.664 143H195.27v-2.133c.51-.036 1.203-.109 2.078-.219.875-.109 1.495-.237 1.859-.382.693-.292 1.158-.657 1.395-1.094.237-.456.355-1.03.355-1.723v-27.371c0-.656-.1-1.194-.3-1.613-.201-.438-.684-.83-1.45-1.176-.474-.219-1.139-.419-1.996-.601a25.192 25.192 0 00-1.941-.356v-2.133h34.398v9.899zM280.227 143h-14.875c-2.57-3.938-4.712-7.073-6.426-9.406-1.695-2.334-3.81-5.032-6.344-8.094h-1.504v11.785c0 .656.119 1.212.356 1.668.255.456.729.839 1.422 1.149.346.145.884.3 1.613.464.747.146 1.385.246 1.914.301V143h-20.699v-2.133a593.25 593.25 0 002.078-.219c.875-.109 1.495-.237 1.859-.382.693-.292 1.158-.657 1.395-1.094.237-.456.355-1.03.355-1.723v-27.371c0-.656-.1-1.203-.3-1.64-.201-.438-.684-.821-1.45-1.149-.583-.237-1.276-.437-2.078-.601a40.91 40.91 0 00-1.859-.356v-2.133h21.766c4.867 0 8.558.766 11.074 2.297 2.534 1.513 3.801 3.81 3.801 6.891 0 2.716-.784 4.903-2.352 6.562-1.55 1.641-3.919 2.926-7.109 3.856 1.239 1.604 2.679 3.463 4.32 5.578a528.382 528.382 0 005.168 6.48c.565.711 1.331 1.586 2.297 2.625.984 1.021 1.85 1.65 2.597 1.887.42.128.948.237 1.586.328.657.091 1.121.146 1.395.164V143zm-18.621-28.848c0-2.588-.729-4.475-2.188-5.66-1.44-1.203-3.5-1.804-6.179-1.804h-2.161v16.242h2.079c2.679 0 4.757-.702 6.234-2.106 1.476-1.403 2.215-3.627 2.215-6.672zM409.285 114.098h-2.078c-.529-1.477-1.44-2.972-2.734-4.485-1.295-1.513-2.58-2.406-3.856-2.679-.547-.128-1.312-.201-2.297-.219a64.776 64.776 0 00-2.406-.055h-5.633v14.985h3.992c1.003 0 1.915-.119 2.735-.356.82-.237 1.568-.693 2.242-1.367.419-.419.839-1.158 1.258-2.215.437-1.057.72-1.978.847-2.762h2.079v16.188h-2.079c-.109-.766-.391-1.723-.847-2.871-.438-1.167-.857-1.969-1.258-2.407a4.574 4.574 0 00-2.133-1.339c-.82-.256-1.768-.383-2.844-.383h-3.992v11.183c0 1.167.082 2.097.246 2.789.183.675.511 1.194.985 1.559.455.346 1.075.574 1.859.684.802.109 1.887.164 3.254.164.638 0 1.404-.009 2.297-.028a20.943 20.943 0 002.351-.164 14.286 14.286 0 002.133-.41c.675-.182 1.176-.446 1.504-.793.875-.893 1.86-2.251 2.953-4.074 1.094-1.841 1.814-3.217 2.16-4.129h1.997L411.281 143h-36.394v-2.133c.51-.036 1.203-.109 2.078-.219.875-.109 1.495-.237 1.859-.382.693-.292 1.158-.657 1.395-1.094.237-.456.355-1.03.355-1.723v-27.371c0-.656-.1-1.194-.301-1.613-.2-.438-.683-.83-1.449-1.176-.474-.219-1.139-.419-1.996-.601a25.192 25.192 0 00-1.941-.356v-2.133h34.398v9.899zM461.551 106.332c-.51.055-1.239.155-2.187.301a5.739 5.739 0 00-2.571 1.066c-.674.492-1.157 1.34-1.449 2.543-.273 1.185-.41 2.935-.41 5.25v27.727h-4.867l-24.172-29.996v18.211c0 2.26.146 3.983.437 5.168.31 1.166.802 2.023 1.477 2.57.492.401 1.276.756 2.351 1.066 1.076.31 1.933.52 2.571.629V143h-16.68v-2.133a17.852 17.852 0 002.434-.383c.929-.218 1.704-.546 2.324-.984.711-.529 1.194-1.322 1.449-2.379.274-1.075.41-2.871.41-5.387v-18.375c0-.911-.146-1.768-.437-2.57a5.157 5.157 0 00-1.313-2.105 6.965 6.965 0 00-2.215-1.45c-.82-.364-1.759-.647-2.816-.847v-2.188h14.602l21.218 26.25v-14.683c0-2.334-.155-4.065-.464-5.196-.31-1.148-.803-1.996-1.477-2.543-.529-.419-1.313-.774-2.352-1.066-1.039-.31-1.877-.52-2.515-.629v-2.133h16.652v2.133zM500.637 108.191c2.37 1.55 4.284 3.619 5.743 6.207 1.458 2.571 2.187 5.724 2.187 9.461 0 3.282-.656 6.144-1.969 8.586-1.294 2.425-3.017 4.412-5.168 5.961-2.187 1.55-4.675 2.707-7.465 3.473-2.77.747-5.678 1.121-8.722 1.121h-19.551v-2.133a31.17 31.17 0 002.188-.164c.875-.091 1.458-.2 1.75-.328.656-.273 1.112-.638 1.367-1.094.255-.474.383-1.039.383-1.695v-27.508c0-.62-.119-1.176-.356-1.668-.237-.51-.702-.92-1.394-1.23a8.139 8.139 0 00-2.215-.629 33.603 33.603 0 00-1.778-.219v-2.133h20.645c2.206 0 4.566.283 7.082.848s4.94 1.613 7.273 3.144zM495.059 136c.893-1.458 1.541-3.19 1.942-5.195.419-2.024.629-4.348.629-6.973 0-2.57-.274-4.913-.821-7.027-.547-2.115-1.349-3.92-2.406-5.414a10.975 10.975 0 00-3.965-3.473c-1.568-.82-3.354-1.23-5.359-1.23-.638 0-1.367.018-2.188.054-.802.018-1.403.037-1.804.055v29.449c0 .656.082 1.24.246 1.75.182.492.483.93.902 1.313.419.382.93.683 1.531.902.62.2 1.422.301 2.407.301 2.059 0 3.828-.383 5.304-1.149 1.477-.765 2.671-1.886 3.582-3.363zM373 119.82c-.243-13.889-12.052-21.686-23.252-21.077 5.6-2.315 10.47-9.26 10.348-17.3C359.852 66.7 342.931 60 324.549 60h-37.617l.122 1.218h1.46c4.139 0 7.67 3.29 7.792 7.554v64.084c-8.4-6.335-14.974-17.057-14.974-33.991l-1.096.122c-3.652 38.742 21.913 46.662 42.487 48.002 27.147 1.827 50.642-7.31 50.277-27.169zm-51.738 20.833v-74.44c9.495.853 12.295 6.214 12.66 16.204.122 3.168.487 16.448-8.521 16.448v1.218c9.008-.122 18.382 4.752 18.991 18.153.608 14.011-8.644 22.296-23.13 22.417zM335.931 168.246h-6.617L327.593 172h-2.513l7.648-16.426L340.105 172h-2.553l-1.621-3.754zm-.951-2.192l-2.292-5.255-2.403 5.255h4.695zM350.562 165.414l4.784 6.586h-2.852l-4.415-6.326h-.42V172h-2.332v-15.455h2.732c2.042 0 3.517.384 4.425 1.151 1.001.854 1.501 1.982 1.501 3.383 0 1.095-.314 2.036-.941 2.823-.627.788-1.455 1.291-2.482 1.512zm-2.903-1.772h.741c2.208 0 3.313-.844 3.313-2.533 0-1.581-1.075-2.372-3.223-2.372h-.831v4.905zM365.043 158.737V172h-2.333v-13.263h-3.553v-2.192h9.429v2.192h-3.543zM394.975 157.376v2.762c-1.348-1.127-2.742-1.691-4.184-1.691-1.588 0-2.926.57-4.014 1.711-1.094 1.135-1.641 2.523-1.641 4.165 0 1.621.547 2.989 1.641 4.104 1.095 1.114 2.436 1.671 4.024 1.671.821 0 1.519-.133 2.092-.4.321-.134.651-.314.991-.541.347-.227.711-.5 1.091-.821v2.813c-1.334.754-2.736 1.131-4.204 1.131-2.208 0-4.094-.77-5.655-2.312-1.555-1.555-2.332-3.43-2.332-5.625 0-1.969.65-3.724 1.951-5.266 1.602-1.888 3.674-2.832 6.217-2.832 1.388 0 2.729.377 4.023 1.131zM400.338 164.202c0-2.175.797-4.044 2.392-5.605 1.588-1.562 3.497-2.342 5.725-2.342 2.203 0 4.091.787 5.666 2.362 1.581 1.575 2.372 3.467 2.372 5.675 0 2.223-.794 4.108-2.382 5.656-1.595 1.555-3.52 2.332-5.776 2.332-1.995 0-3.787-.69-5.375-2.072-1.748-1.528-2.622-3.53-2.622-6.006zm2.352.03c0 1.709.574 3.113 1.721 4.215 1.142 1.101 2.46 1.651 3.954 1.651 1.622 0 2.99-.56 4.104-1.681 1.115-1.135 1.672-2.516 1.672-4.145 0-1.648-.551-3.029-1.652-4.144-1.094-1.121-2.449-1.681-4.064-1.681-1.608 0-2.966.56-4.074 1.681-1.107 1.108-1.661 2.476-1.661 4.104zM422.166 172l3.253-16.616 5.305 12.012 5.495-12.012L439.142 172h-2.392l-1.492-9.329-4.574 10.04-4.444-10.05-1.662 9.339h-2.412zM448.038 165.724V172h-2.333v-15.455h2.643c1.295 0 2.272.09 2.933.27.667.18 1.254.521 1.762 1.021.887.868 1.331 1.962 1.331 3.283 0 1.415-.474 2.536-1.422 3.364-.947.827-2.225 1.241-3.833 1.241h-1.081zm0-2.162h.87c2.143 0 3.214-.824 3.214-2.473 0-1.595-1.105-2.392-3.314-2.392h-.77v4.865zM467.994 168.246h-6.617L459.656 172h-2.513l7.648-16.426L472.168 172h-2.553l-1.621-3.754zm-.951-2.192l-2.292-5.255-2.403 5.255h4.695zM477.39 172v-16.506l11.271 11.791v-10.74h2.332v16.396l-11.271-11.762V172h-2.332zM501.11 165.323l-5.045-8.778h2.683l3.533 6.176 3.543-6.176h2.683l-5.065 8.778V172h-2.332v-6.677z" fill="#fff"/></svg>