<svg width="540" height="235" viewBox="0 0 540 235" fill="none" xmlns="http://www.w3.org/2000/svg">
<g clip-path="url(#clip0)">
<rect width="540" height="234.133" fill="white"/>
<rect width="540" height="235" fill="url(#paint0_linear)"/>
<path d="M112.999 132.125C104.355 119.698 98.7554 108.368 87.1904 105.931C100.338 107.271 112.512 98.2555 112.512 83.1483C112.512 63.1677 91.2077 60 76.4775 60H29V61.2183H30.5826C34.7217 61.3402 38.252 64.6296 38.252 68.8938V136.511C38.1303 140.775 34.7217 144.187 30.4608 144.187L29 144.065V145.283H72.7037V144.065H71.2428C66.8603 144.187 63.4516 140.653 63.3299 136.511V66.3353H68.8081C76.8427 66.3353 85.8513 71.0868 86.3382 82.4173C86.46 84.7321 86.2165 86.3159 86.0948 87.4124C84.5122 98.621 75.6254 102.398 69.4168 102.398C68.9298 102.398 67.8342 102.398 67.3472 102.52V103.616C69.782 104.347 71.8515 107.758 73.7993 111.779C76.4775 117.14 82.3209 131.394 88.8947 142.115C115.068 184.879 154.389 175.376 167.537 165.995V164.776C141.607 163.192 126.877 151.984 112.999 132.125Z" fill="black"/>
<path d="M145.242 143H123.723V140.867C124.215 140.831 124.935 140.776 125.883 140.703C126.849 140.63 127.514 140.521 127.879 140.375C128.553 140.102 129.009 139.746 129.246 139.309C129.501 138.853 129.629 138.279 129.629 137.586V110.078C129.629 109.458 129.51 108.911 129.273 108.438C129.036 107.964 128.572 107.581 127.879 107.289C127.441 107.107 126.794 106.924 125.938 106.742C125.081 106.542 124.342 106.405 123.723 106.332V104.199H145.242V106.332C144.695 106.387 144.012 106.469 143.191 106.578C142.371 106.669 141.678 106.806 141.113 106.988C140.402 107.225 139.928 107.599 139.691 108.109C139.454 108.602 139.336 109.167 139.336 109.805V137.285C139.336 137.941 139.454 138.507 139.691 138.98C139.947 139.436 140.421 139.81 141.113 140.102C141.496 140.266 142.125 140.43 143 140.594C143.893 140.74 144.641 140.831 145.242 140.867V143Z" fill="black"/>
<path d="M192.477 106.387C191.875 106.441 191.301 106.551 190.754 106.715C190.207 106.879 189.642 107.134 189.059 107.48C188.275 107.936 187.664 108.428 187.227 108.957C186.808 109.467 186.388 110.178 185.969 111.09C185.404 112.348 184.611 114.189 183.59 116.613C182.569 119.02 181.403 121.763 180.09 124.844C178.923 127.615 177.657 130.65 176.289 133.949C174.94 137.249 173.646 140.411 172.407 143.438H166.91C164.358 137.185 161.761 130.832 159.118 124.379C156.474 117.926 154.615 113.441 153.539 110.926C153.12 110.014 152.71 109.331 152.309 108.875C151.926 108.401 151.306 107.918 150.45 107.426C149.83 107.079 149.283 106.842 148.809 106.715C148.335 106.569 147.706 106.441 146.922 106.332V104.199H167.95V106.277C165.981 106.514 164.641 106.77 163.93 107.043C163.237 107.298 162.891 107.626 162.891 108.027C162.891 108.228 162.918 108.447 162.973 108.684C163.046 108.902 163.146 109.203 163.274 109.586C163.857 111.19 164.914 113.815 166.446 117.461C167.977 121.089 170.246 126.63 173.254 134.086C175.095 129.547 176.627 125.71 177.848 122.574C179.069 119.439 180.145 116.668 181.075 114.262C181.53 113.095 181.904 112.01 182.196 111.008C182.506 109.987 182.66 109.221 182.66 108.711C182.66 108.128 182.241 107.645 181.403 107.262C180.564 106.861 179.015 106.569 176.754 106.387V104.199H192.477V106.387Z" fill="black"/>
<path d="M227.668 114.098H225.59C225.062 112.621 224.15 111.126 222.856 109.613C221.562 108.1 220.276 107.207 219 106.934C218.453 106.806 217.688 106.733 216.703 106.715C215.737 106.678 214.935 106.66 214.297 106.66H208.664V121.645H212.657C213.659 121.645 214.571 121.526 215.391 121.289C216.211 121.052 216.959 120.596 217.633 119.922C218.052 119.503 218.472 118.764 218.891 117.707C219.328 116.65 219.611 115.729 219.739 114.945H221.817V131.133H219.739C219.629 130.367 219.347 129.41 218.891 128.262C218.453 127.095 218.034 126.293 217.633 125.855C217.032 125.199 216.321 124.753 215.5 124.516C214.68 124.26 213.732 124.133 212.657 124.133H208.664V135.316C208.664 136.483 208.746 137.413 208.91 138.105C209.093 138.78 209.421 139.299 209.895 139.664C210.351 140.01 210.97 140.238 211.754 140.348C212.556 140.457 213.641 140.512 215.008 140.512C215.646 140.512 216.412 140.503 217.305 140.484C218.198 140.466 218.982 140.411 219.657 140.32C220.422 140.229 221.133 140.092 221.789 139.91C222.464 139.728 222.965 139.464 223.293 139.117C224.168 138.224 225.153 136.866 226.246 135.043C227.34 133.202 228.06 131.826 228.407 130.914H230.403L229.664 143H193.27V140.867C193.78 140.831 194.473 140.758 195.348 140.648C196.223 140.539 196.843 140.411 197.207 140.266C197.9 139.974 198.365 139.609 198.602 139.172C198.839 138.716 198.957 138.142 198.957 137.449V110.078C198.957 109.422 198.857 108.884 198.657 108.465C198.456 108.027 197.973 107.635 197.207 107.289C196.733 107.07 196.068 106.87 195.211 106.688C194.354 106.505 193.707 106.387 193.27 106.332V104.199H227.668V114.098Z" fill="black"/>
<path d="M278.227 143H263.352C260.782 139.062 258.64 135.927 256.926 133.594C255.231 131.26 253.116 128.562 250.582 125.5H249.078V137.285C249.078 137.941 249.197 138.497 249.434 138.953C249.689 139.409 250.163 139.792 250.856 140.102C251.202 140.247 251.74 140.402 252.469 140.566C253.216 140.712 253.854 140.812 254.383 140.867V143H233.684V140.867C234.213 140.812 234.905 140.74 235.762 140.648C236.637 140.539 237.257 140.411 237.621 140.266C238.314 139.974 238.779 139.609 239.016 139.172C239.253 138.716 239.371 138.142 239.371 137.449V110.078C239.371 109.422 239.271 108.875 239.071 108.438C238.87 108 238.387 107.617 237.621 107.289C237.038 107.052 236.345 106.852 235.543 106.688C234.759 106.523 234.14 106.405 233.684 106.332V104.199H255.45C260.317 104.199 264.008 104.965 266.524 106.496C269.058 108.009 270.325 110.306 270.325 113.387C270.325 116.103 269.541 118.29 267.973 119.949C266.423 121.59 264.054 122.875 260.864 123.805C262.103 125.409 263.543 127.268 265.184 129.383C266.843 131.497 268.565 133.658 270.352 135.863C270.917 136.574 271.683 137.449 272.649 138.488C273.633 139.509 274.499 140.138 275.246 140.375C275.666 140.503 276.194 140.612 276.832 140.703C277.489 140.794 277.953 140.849 278.227 140.867V143ZM259.606 114.152C259.606 111.564 258.877 109.677 257.418 108.492C255.978 107.289 253.918 106.688 251.239 106.688H249.078V122.93H251.157C253.836 122.93 255.914 122.228 257.391 120.824C258.867 119.421 259.606 117.197 259.606 114.152Z" fill="black"/>
<path d="M409.285 114.098H407.207C406.678 112.621 405.767 111.126 404.473 109.613C403.178 108.1 401.893 107.207 400.617 106.934C400.07 106.806 399.305 106.733 398.32 106.715C397.354 106.678 396.552 106.66 395.914 106.66H390.281V121.645H394.273C395.276 121.645 396.188 121.526 397.008 121.289C397.828 121.052 398.576 120.596 399.25 119.922C399.669 119.503 400.089 118.764 400.508 117.707C400.945 116.65 401.228 115.729 401.355 114.945H403.434V131.133H401.355C401.246 130.367 400.964 129.41 400.508 128.262C400.07 127.095 399.651 126.293 399.25 125.855C398.648 125.199 397.938 124.753 397.117 124.516C396.297 124.26 395.349 124.133 394.273 124.133H390.281V135.316C390.281 136.483 390.363 137.413 390.527 138.105C390.71 138.78 391.038 139.299 391.512 139.664C391.967 140.01 392.587 140.238 393.371 140.348C394.173 140.457 395.258 140.512 396.625 140.512C397.263 140.512 398.029 140.503 398.922 140.484C399.815 140.466 400.599 140.411 401.273 140.32C402.039 140.229 402.75 140.092 403.406 139.91C404.081 139.728 404.582 139.464 404.91 139.117C405.785 138.224 406.77 136.866 407.863 135.043C408.957 133.202 409.677 131.826 410.023 130.914H412.02L411.281 143H374.887V140.867C375.397 140.831 376.09 140.758 376.965 140.648C377.84 140.539 378.46 140.411 378.824 140.266C379.517 139.974 379.982 139.609 380.219 139.172C380.456 138.716 380.574 138.142 380.574 137.449V110.078C380.574 109.422 380.474 108.884 380.273 108.465C380.073 108.027 379.59 107.635 378.824 107.289C378.35 107.07 377.685 106.87 376.828 106.688C375.971 106.505 375.324 106.387 374.887 106.332V104.199H409.285V114.098Z" fill="black"/>
<path d="M461.551 106.332C461.041 106.387 460.312 106.487 459.364 106.633C458.416 106.779 457.559 107.134 456.793 107.699C456.119 108.191 455.636 109.039 455.344 110.242C455.071 111.427 454.934 113.177 454.934 115.492V143.219H450.067L425.895 113.223V131.434C425.895 133.694 426.041 135.417 426.332 136.602C426.642 137.768 427.134 138.625 427.809 139.172C428.301 139.573 429.085 139.928 430.16 140.238C431.236 140.548 432.093 140.758 432.731 140.867V143H416.051V140.867C416.762 140.812 417.573 140.685 418.485 140.484C419.414 140.266 420.189 139.938 420.809 139.5C421.52 138.971 422.003 138.178 422.258 137.121C422.532 136.046 422.668 134.25 422.668 131.734V113.359C422.668 112.448 422.522 111.591 422.231 110.789C421.957 109.969 421.52 109.267 420.918 108.684C420.28 108.064 419.542 107.581 418.703 107.234C417.883 106.87 416.944 106.587 415.887 106.387V104.199H430.489L451.707 130.449V115.766C451.707 113.432 451.552 111.701 451.243 110.57C450.933 109.422 450.44 108.574 449.766 108.027C449.237 107.608 448.453 107.253 447.414 106.961C446.375 106.651 445.537 106.441 444.899 106.332V104.199H461.551V106.332Z" fill="black"/>
<path d="M500.637 108.191C503.007 109.741 504.921 111.81 506.38 114.398C507.838 116.969 508.567 120.122 508.567 123.859C508.567 127.141 507.911 130.003 506.598 132.445C505.304 134.87 503.581 136.857 501.43 138.406C499.243 139.956 496.755 141.113 493.965 141.879C491.195 142.626 488.287 143 485.243 143H465.692V140.867C466.275 140.849 467.005 140.794 467.88 140.703C468.755 140.612 469.338 140.503 469.63 140.375C470.286 140.102 470.742 139.737 470.997 139.281C471.252 138.807 471.38 138.242 471.38 137.586V110.078C471.38 109.458 471.261 108.902 471.024 108.41C470.787 107.9 470.322 107.49 469.63 107.18C468.937 106.87 468.199 106.66 467.415 106.551C466.649 106.441 466.057 106.368 465.637 106.332V104.199H486.282C488.488 104.199 490.848 104.482 493.364 105.047C495.88 105.612 498.304 106.66 500.637 108.191ZM495.059 136C495.952 134.542 496.6 132.81 497.001 130.805C497.42 128.781 497.63 126.457 497.63 123.832C497.63 121.262 497.356 118.919 496.809 116.805C496.262 114.69 495.46 112.885 494.403 111.391C493.346 109.896 492.024 108.738 490.438 107.918C488.87 107.098 487.084 106.688 485.079 106.688C484.441 106.688 483.712 106.706 482.891 106.742C482.089 106.76 481.488 106.779 481.087 106.797V136.246C481.087 136.902 481.169 137.486 481.333 137.996C481.515 138.488 481.816 138.926 482.235 139.309C482.654 139.691 483.165 139.992 483.766 140.211C484.386 140.411 485.188 140.512 486.173 140.512C488.232 140.512 490.001 140.129 491.477 139.363C492.954 138.598 494.148 137.477 495.059 136Z" fill="black"/>
<path d="M373 119.82C372.757 105.931 360.948 98.1337 349.748 98.7429C355.348 96.428 360.218 89.4836 360.096 81.4426C359.852 66.7008 342.931 60 324.549 60H286.932L287.053 61.2183C287.175 61.2183 288.271 61.2183 288.514 61.2183C292.653 61.2183 296.184 64.5078 296.306 68.772V132.856C287.906 126.521 281.332 115.799 281.332 98.8647L280.236 98.9865C276.584 137.729 302.149 145.649 322.723 146.989C349.87 148.816 373.365 139.679 373 119.82ZM321.262 140.653V66.2135C330.757 67.0663 333.557 72.427 333.922 82.4173C334.044 85.5849 334.409 98.8647 325.401 98.8647V100.083C334.409 99.9612 343.783 104.835 344.392 118.236C345 132.247 335.748 140.532 321.262 140.653Z" fill="black"/>
<path d="M335.931 168.246H329.314L327.593 172H325.08L332.728 155.574L340.105 172H337.552L335.931 168.246ZM334.98 166.054L332.688 160.799L330.285 166.054H334.98Z" fill="black"/>
<path d="M350.562 165.414L355.346 172H352.494L348.079 165.674H347.659V172H345.327V156.545H348.059C350.101 156.545 351.576 156.929 352.484 157.696C353.485 158.55 353.985 159.678 353.985 161.079C353.985 162.174 353.671 163.115 353.044 163.902C352.417 164.69 351.589 165.193 350.562 165.414ZM347.659 163.642H348.4C350.608 163.642 351.713 162.798 351.713 161.109C351.713 159.528 350.638 158.737 348.49 158.737H347.659V163.642Z" fill="black"/>
<path d="M365.043 158.737V172H362.71V158.737H359.157V156.545H368.586V158.737H365.043Z" fill="black"/>
<path d="M394.975 157.376V160.138C393.627 159.011 392.233 158.447 390.791 158.447C389.203 158.447 387.865 159.017 386.777 160.158C385.683 161.293 385.136 162.681 385.136 164.323C385.136 165.944 385.683 167.312 386.777 168.427C387.872 169.541 389.213 170.098 390.801 170.098C391.622 170.098 392.32 169.965 392.893 169.698C393.214 169.564 393.544 169.384 393.884 169.157C394.231 168.93 394.595 168.657 394.975 168.336V171.149C393.641 171.903 392.239 172.28 390.771 172.28C388.563 172.28 386.677 171.51 385.116 169.968C383.561 168.413 382.784 166.538 382.784 164.343C382.784 162.374 383.434 160.619 384.735 159.077C386.337 157.189 388.409 156.245 390.952 156.245C392.34 156.245 393.681 156.622 394.975 157.376Z" fill="black"/>
<path d="M400.338 164.202C400.338 162.027 401.135 160.158 402.73 158.597C404.318 157.035 406.227 156.255 408.455 156.255C410.658 156.255 412.546 157.042 414.121 158.617C415.702 160.192 416.493 162.084 416.493 164.292C416.493 166.515 415.699 168.4 414.111 169.948C412.516 171.503 410.591 172.28 408.335 172.28C406.34 172.28 404.548 171.59 402.96 170.208C401.212 168.68 400.338 166.678 400.338 164.202ZM402.69 164.232C402.69 165.941 403.264 167.345 404.411 168.447C405.553 169.548 406.871 170.098 408.365 170.098C409.987 170.098 411.355 169.538 412.469 168.417C413.584 167.282 414.141 165.901 414.141 164.272C414.141 162.624 413.59 161.243 412.489 160.128C411.395 159.007 410.04 158.447 408.425 158.447C406.817 158.447 405.459 159.007 404.351 160.128C403.244 161.236 402.69 162.604 402.69 164.232Z" fill="black"/>
<path d="M422.166 172L425.419 155.384L430.724 167.396L436.219 155.384L439.142 172H436.75L435.258 162.671L430.684 172.711L426.24 162.661L424.578 172H422.166Z" fill="black"/>
<path d="M448.038 165.724V172H445.705V156.545H448.348C449.643 156.545 450.62 156.635 451.281 156.815C451.948 156.995 452.535 157.336 453.043 157.836C453.93 158.704 454.374 159.798 454.374 161.119C454.374 162.534 453.9 163.655 452.952 164.483C452.005 165.31 450.727 165.724 449.119 165.724H448.038ZM448.038 163.562H448.908C451.051 163.562 452.122 162.738 452.122 161.089C452.122 159.494 451.017 158.697 448.808 158.697H448.038V163.562Z" fill="black"/>
<path d="M467.994 168.246H461.377L459.656 172H457.143L464.791 155.574L472.168 172H469.615L467.994 168.246ZM467.043 166.054L464.751 160.799L462.348 166.054H467.043Z" fill="black"/>
<path d="M477.39 172V155.494L488.661 167.285V156.545H490.993V172.941L479.722 161.179V172H477.39Z" fill="black"/>
<path d="M501.11 165.323L496.065 156.545H498.748L502.281 162.721L505.824 156.545H508.507L503.442 165.323V172H501.11V165.323Z" fill="black"/>
</g>
<defs>
<linearGradient id="paint0_linear" x1="270" y1="0" x2="270" y2="235" gradientUnits="userSpaceOnUse">
<stop stop-color="#FDD451"/>
<stop offset="1" stop-color="#F5F5DC"/>
</linearGradient>
<clipPath id="clip0">
<rect width="540" height="234.133" fill="white"/>
</clipPath>
</defs>
</svg>
