<svg viewBox="0 0 255 235" fill="none" xmlns="http://www.w3.org/2000/svg"><rect fill="#000"/><path d="M123.999 133.125c-8.644-12.427-14.244-23.757-25.809-26.194 13.148 1.34 25.322-7.675 25.322-22.783 0-19.98-21.304-23.148-36.034-23.148H40v1.218h1.583c4.139.122 7.669 3.412 7.669 7.676v67.617c-.122 4.264-3.53 7.676-7.791 7.676L40 145.065v1.218h43.704v-1.218h-1.461c-4.383.122-7.791-3.412-7.913-7.554V67.335h5.478c8.035 0 17.043 4.752 17.53 16.082.122 2.315-.121 3.899-.243 4.995-1.583 11.209-10.47 14.986-16.678 14.986-.487 0-1.583 0-2.07.122v1.096c2.435.731 4.505 4.142 6.452 8.163 2.678 5.361 8.522 19.615 15.096 30.336 26.173 42.764 65.494 33.261 78.642 23.88v-1.219c-25.93-1.584-40.66-12.792-54.538-32.651z" fill="#fff"/><path d="M222.996 120.82c-.244-13.889-12.052-21.686-23.252-21.077 5.6-2.315 10.469-9.26 10.348-17.3C209.848 67.7 192.927 61 174.544 61h-37.616l.121 1.218h1.461c4.139 0 7.67 3.29 7.791 7.554v64.084c-8.4-6.335-14.973-17.057-14.973-33.991l-1.096.122c-3.652 38.742 21.913 46.662 42.486 48.002 27.148 1.827 50.643-7.31 50.278-27.169zm-51.739 20.833v-74.44c9.496.853 12.296 6.214 12.661 16.204.122 3.168.487 16.448-8.521 16.448v1.218c9.008-.122 18.382 4.752 18.991 18.153.608 14.011-8.644 22.296-23.131 22.417z" fill="#fff"/></svg>