<svg width="256" height="256" viewBox="0 0 256 256" fill="none" xmlns="http://www.w3.org/2000/svg">
<rect width="256" height="256" fill="#1D1B1C"/>
<path d="M46 178.589V77.7055H89.7367C94.6916 77.7055 99.2654 78.7475 103.458 80.8314C107.651 82.8207 111.224 85.473 114.178 88.7885C117.227 92.0092 119.609 95.7508 121.324 100.014C123.039 104.181 123.897 108.397 123.897 112.659C123.897 117.112 123.087 121.469 121.467 125.732C119.847 129.9 117.56 133.641 114.607 136.957C111.748 140.177 108.222 142.782 104.03 144.772C99.9324 146.666 95.4062 147.614 90.4513 147.614H73.8714V178.589H46ZM73.8714 123.458H88.5932C90.3084 123.458 91.8806 122.7 93.3099 121.185C94.8345 119.575 95.5968 116.733 95.5968 112.659C95.5968 108.492 94.7392 105.65 93.0241 104.134C91.3089 102.619 89.5937 101.861 87.8786 101.861H73.8714V123.458Z" fill="#AB2E26"/>
<path d="M196.547 110.812C193.685 109.108 190.728 107.592 187.675 106.266C185.099 105.13 182.19 104.088 178.946 103.141C175.798 102.099 172.697 101.578 169.645 101.578C167.164 101.578 165.161 101.957 163.634 102.714C162.203 103.472 161.488 104.751 161.488 106.55C161.488 107.876 161.917 108.966 162.776 109.818C163.634 110.67 164.875 111.475 166.496 112.233C168.118 112.896 170.074 113.559 172.363 114.222C174.748 114.885 177.42 115.69 180.377 116.637C185.051 118.058 189.249 119.621 192.97 121.326C196.786 123.03 200.029 125.067 202.7 127.434C205.371 129.708 207.423 132.502 208.854 135.817C210.285 139.131 211 143.157 211 147.892C211 153.954 209.855 159.069 207.566 163.236C205.371 167.309 202.414 170.576 198.694 173.039C195.068 175.501 190.919 177.301 186.244 178.437C181.665 179.479 177.038 180 172.363 180C168.643 180 164.827 179.716 160.916 179.148C157.004 178.579 153.093 177.774 149.181 176.732C145.365 175.691 141.645 174.459 138.02 173.039C134.49 171.618 131.199 170.008 128.146 168.208L140.166 143.914C143.505 145.998 146.987 147.845 150.612 149.455C153.665 150.876 157.1 152.154 160.916 153.291C164.827 154.428 168.786 154.996 172.793 154.996C175.845 154.996 177.944 154.617 179.089 153.859C180.329 153.007 180.949 151.918 180.949 150.592C180.949 149.171 180.329 147.987 179.089 147.04C177.944 145.998 176.322 145.098 174.224 144.341C172.125 143.583 169.692 142.825 166.926 142.068C164.254 141.31 161.393 140.41 158.34 139.368C153.856 137.853 149.992 136.243 146.749 134.538C143.505 132.738 140.834 130.749 138.735 128.571C136.636 126.298 135.062 123.741 134.013 120.899C133.059 118.058 132.582 114.79 132.582 111.097C132.582 105.509 133.584 100.583 135.587 96.3214C137.686 92.0593 140.5 88.5076 144.03 85.6662C147.56 82.8248 151.566 80.6938 156.05 79.2731C160.629 77.7577 165.447 77 170.503 77C174.224 77 177.849 77.3789 181.379 78.1366C184.908 78.7995 188.295 79.6993 191.539 80.8359C194.878 81.8777 197.978 83.0616 200.84 84.3876C203.702 85.6188 206.278 86.8028 208.567 87.9393L196.547 110.812Z" fill="white"/>
</svg>
