<svg width="256" height="256" viewBox="0 0 256 256" fill="none" xmlns="http://www.w3.org/2000/svg">
<rect width="256" height="256" fill="#1D1B1C"/>
<path d="M42 136.67V82H65.562C68.2313 82 70.6953 82.5647 72.954 83.694C75.2127 84.772 77.1377 86.2093 78.729 88.006C80.3717 89.7513 81.655 91.779 82.579 94.089C83.503 96.3477 83.965 98.632 83.965 100.942C83.965 103.355 83.5287 105.716 82.656 108.026C81.7833 110.285 80.5513 112.312 78.96 114.109C77.42 115.854 75.5207 117.266 73.262 118.344C71.0547 119.371 68.6163 119.884 65.947 119.884H57.015V136.67H42ZM57.015 106.794H64.946C65.87 106.794 66.717 106.383 67.487 105.562C68.3083 104.689 68.719 103.149 68.719 100.942C68.719 98.6833 68.257 97.1433 67.333 96.322C66.409 95.5007 65.485 95.09 64.561 95.09H57.015V106.794Z" fill="#AB2E26"/>
<path d="M138.716 82V136.67H123.701V115.264H105.375V136.67H90.3596V82H105.375V102.174H123.701V82H138.716Z" fill="#AB2E26"/>
<path d="M148.495 136.67V82H163.51V136.67H148.495Z" fill="#AB2E26"/>
<path d="M173.318 136.67V82H188.333V123.58H213.127V136.67H173.318Z" fill="#AB2E26"/>
<path d="M61.943 154.88C61.143 154.4 60.3163 153.973 59.463 153.6C58.743 153.28 57.9297 152.987 57.023 152.72C56.143 152.427 55.2763 152.28 54.423 152.28C53.7297 152.28 53.1697 152.387 52.743 152.6C52.343 152.813 52.143 153.173 52.143 153.68C52.143 154.053 52.263 154.36 52.503 154.6C52.743 154.84 53.0897 155.067 53.543 155.28C53.9963 155.467 54.543 155.653 55.183 155.84C55.8497 156.027 56.5963 156.253 57.423 156.52C58.7297 156.92 59.903 157.36 60.943 157.84C62.0097 158.32 62.9163 158.893 63.663 159.56C64.4097 160.2 64.983 160.987 65.383 161.92C65.783 162.853 65.983 163.987 65.983 165.32C65.983 167.027 65.663 168.467 65.023 169.64C64.4097 170.787 63.583 171.707 62.543 172.4C61.5297 173.093 60.3697 173.6 59.063 173.92C57.783 174.213 56.4897 174.36 55.183 174.36C54.143 174.36 53.0763 174.28 51.983 174.12C50.8897 173.96 49.7963 173.733 48.703 173.44C47.6363 173.147 46.5963 172.8 45.583 172.4C44.5963 172 43.6763 171.547 42.823 171.04L46.183 164.2C47.1163 164.787 48.0897 165.307 49.103 165.76C49.9563 166.16 50.9163 166.52 51.983 166.84C53.0763 167.16 54.183 167.32 55.303 167.32C56.1563 167.32 56.743 167.213 57.063 167C57.4097 166.76 57.583 166.453 57.583 166.08C57.583 165.68 57.4097 165.347 57.063 165.08C56.743 164.787 56.2897 164.533 55.703 164.32C55.1163 164.107 54.4363 163.893 53.663 163.68C52.9163 163.467 52.1163 163.213 51.263 162.92C50.0097 162.493 48.9297 162.04 48.023 161.56C47.1163 161.053 46.3697 160.493 45.783 159.88C45.1963 159.24 44.7563 158.52 44.463 157.72C44.1963 156.92 44.063 156 44.063 154.96C44.063 153.387 44.343 152 44.903 150.8C45.4897 149.6 46.2763 148.6 47.263 147.8C48.2497 147 49.3697 146.4 50.623 146C51.903 145.573 53.2497 145.36 54.663 145.36C55.703 145.36 56.7163 145.467 57.703 145.68C58.6897 145.867 59.6363 146.12 60.543 146.44C61.4763 146.733 62.343 147.067 63.143 147.44C63.943 147.787 64.663 148.12 65.303 148.44L61.943 154.88Z" fill="white"/>
<path d="M69.4305 174V145.6H77.2305V174H69.4305Z" fill="white"/>
<path d="M89.9258 160.04V174H82.1258V145.6H88.2058L99.6058 160.04V145.6H107.406V174H101.206L89.9258 160.04Z" fill="white"/>
<path d="M119.642 145.6H126.762L136.602 174H128.682L126.962 168.44H119.402L117.722 174H109.762L119.642 145.6ZM125.722 163.24L123.202 154.44L120.562 163.24H125.722Z" fill="white"/>
<path d="M158.465 152.4H150.305V174H142.505V152.4H134.305V145.6H158.465V152.4Z" fill="white"/>
<path d="M161.305 174V145.6H174.346C175.732 145.6 177.012 145.893 178.186 146.48C179.359 147.04 180.359 147.787 181.186 148.72C182.039 149.627 182.706 150.68 183.186 151.88C183.666 153.053 183.906 154.24 183.906 155.44C183.906 157.093 183.546 158.64 182.826 160.08C182.106 161.493 181.105 162.653 179.826 163.56L185.826 174H177.025L172.025 165.28H169.105V174H161.305ZM169.105 158.48H174.025C174.505 158.48 174.946 158.213 175.346 157.68C175.772 157.147 175.986 156.4 175.986 155.44C175.986 154.453 175.746 153.707 175.266 153.2C174.786 152.667 174.306 152.4 173.826 152.4H169.105V158.48Z" fill="white"/>
<path d="M195.658 145.6H202.778L212.618 174H204.698L202.978 168.44H195.418L193.738 174H185.778L195.658 145.6ZM201.738 163.24L199.218 154.44L196.578 163.24H201.738Z" fill="white"/>
</svg>
